<svg version="1.1" id="Capa_1" xmlns="http://www.w3.org/2000/svg" xmlns:xlink="http://www.w3.org/1999/xlink" x="0px" y="0px" viewBox="0 0 460 460" style="enable-background:new 0 0 460 460;" xml:space="preserve">
    <g id="XMLID_1106_">
        <path style="fill:#DC143C" id="XMLID_1224_" d="M404.316,242.105h-21.789V230c0-4.011-3.251-7.263-7.263-7.263h-46.484
		c-7.743,0-14.042-6.299-14.042-14.042v-68.274h28.158c4.012,0,7.263-3.252,7.263-7.263V98.421c0-4.011-3.251-7.263-7.263-7.263
		H318.33c-6.213-16.847-17.329-31.882-31.741-42.746c-9.13-6.882-19.239-11.954-29.958-15.105V7.263
		c0-4.011-3.251-7.263-7.263-7.263h-38.737c-4.011,0-7.263,3.252-7.263,7.263v26.044c-10.719,3.151-20.827,8.222-29.958,15.105
		c-14.412,10.864-25.527,25.899-31.741,42.746h-24.565c-4.011,0-7.263,3.252-7.263,7.263v34.737c0,4.011,3.252,7.263,7.263,7.263
		h28.158v68.274c0,7.743-6.299,14.042-14.042,14.042H84.737c-4.011,0-7.263,3.252-7.263,7.263v12.105H55.684
		c-4.011,0-7.263,3.252-7.263,7.263v58.105c0,4.011,3.252,7.263,7.263,7.263h21.789v12.105c0,4.011,3.252,7.263,7.263,7.263h46.484
		c7.743,0,14.042,6.299,14.042,14.042v68.274h-31.474c-4.011,0-7.263,3.252-7.263,7.263v29.053c0,4.011,3.252,7.263,7.263,7.263
		h232.421c4.012,0,7.263-3.252,7.263-7.263v-29.053c0-4.011-3.251-7.263-7.263-7.263h-31.474v-68.274
		c0-7.743,6.299-14.042,14.042-14.042h46.484c4.012,0,7.263-3.252,7.263-7.263v-12.105h21.789c4.012,0,7.263-3.252,7.263-7.263
		v-58.105C411.579,245.357,408.328,242.105,404.316,242.105z M217.895,14.526h24.211v15.748c-3.984-0.508-8.023-0.775-12.105-0.775
		s-8.121,0.267-12.105,0.775V14.526z M230,44.026c31.42,0,60.015,18.953,72.672,47.132H157.328
		C169.985,62.979,198.581,44.026,230,44.026z M124.368,105.684h211.264v20.211H124.368V105.684z M62.947,300.211v-43.579h14.526
		v43.579H62.947z M92,237.263h24.211v82.316H92V237.263z M338.947,445.474H121.053v-14.526h217.895V445.474z M300.211,348.147
		v68.274H159.789v-68.274c0-15.752-12.816-28.568-28.568-28.568h-0.484v-82.316h0.484c15.752,0,28.568-12.816,28.568-28.568v-68.274
		h140.421v68.274c0,15.752,12.815,28.568,28.568,28.568h0.484v82.316h-0.484C313.026,319.579,300.211,332.395,300.211,348.147z
		 M368,319.579h-24.211v-82.316H368V319.579z M397.053,300.211h-14.526v-43.579h14.526V300.211z" />
        <path id="XMLID_1248_" d="M230,213.053c-36.044,0-65.368,29.324-65.368,65.368s29.324,65.368,65.368,65.368
		s65.368-29.324,65.368-65.368S266.044,213.053,230,213.053z M230,329.263c-28.035,0-50.842-22.808-50.842-50.842
		s22.808-50.842,50.842-50.842c28.034,0,50.842,22.808,50.842,50.842S258.034,329.263,230,329.263z" />
        <path id="XMLID_1251_" d="M230,251.789c-14.685,0-26.632,11.947-26.632,26.632s11.947,26.632,26.632,26.632
		c14.684,0,26.632-11.947,26.632-26.632S244.684,251.789,230,251.789z M230,290.526c-6.675,0-12.105-5.43-12.105-12.105
		s5.43-12.105,12.105-12.105s12.105,5.43,12.105,12.105S236.675,290.526,230,290.526z" />
    </g>
</svg>