<?xml version="1.0" standalone="no"?>
<!DOCTYPE svg PUBLIC "-//W3C//DTD SVG 20010904//EN"
 "http://www.w3.org/TR/2001/REC-SVG-20010904/DTD/svg10.dtd">
<svg version="1.0" xmlns="http://www.w3.org/2000/svg"
 width="80.000000pt" height="81.000000pt" viewBox="0 0 80.000000 81.000000"
 preserveAspectRatio="xMidYMid meet">
<metadata>
Created by potrace 1.15, written by Peter Selinger 2001-2017
</metadata>
<g transform="translate(0.000000,81.000000) scale(0.100000,-0.100000)"
fill="#000000" stroke="none">
<path d="M0 751 c0 -109 79 -361 157 -501 96 -171 273 -260 411 -205 37 15 41
15 110 -15 39 -16 82 -30 96 -30 24 0 26 3 26 44 l0 44 -65 4 c-74 5 -165 47
-275 128 -52 38 -76 49 -120 54 -73 9 -100 26 -42 26 23 0 42 4 42 8 0 4 -23
30 -50 57 -28 27 -69 77 -91 110 l-41 60 62 -68 c34 -37 65 -65 70 -62 4 3 4
24 -1 47 -18 79 -4 69 20 -14 24 -81 27 -86 81 -126 32 -23 65 -45 75 -48 15
-6 16 -3 11 27 -6 30 -4 28 17 -16 28 -59 44 -73 116 -111 51 -26 54 -27 67
-9 34 47 30 190 -8 264 -34 66 -87 100 -234 155 -168 63 -265 114 -347 181
-37 30 -71 55 -77 55 -6 0 -10 -25 -10 -59z"/>
</g>
</svg>
