<?xml version="1.0" standalone="no"?>
<!DOCTYPE svg PUBLIC "-//W3C//DTD SVG 20010904//EN"
 "http://www.w3.org/TR/2001/REC-SVG-20010904/DTD/svg10.dtd">
<svg version="1.0" xmlns="http://www.w3.org/2000/svg"
 width="64.000000pt" height="64.000000pt" viewBox="0 0 64.000000 64.000000"
 preserveAspectRatio="xMidYMid meet">
<metadata>
</metadata>
<g transform="translate(0.000000,64.000000) scale(0.100000,-0.100000)"
fill="#000000" stroke="none">
<path style="fill:#5a4526" d="M220 614 c-65 -24 -60 0 -60 -293 0 -265 0 -266 22 -280 31 -20 163
-27 183 -11 11 9 15 10 15 0 0 -8 10 -9 32 -5 68 15 68 15 68 177 l0 147 43
23 c34 19 43 29 45 56 3 32 3 32 -42 32 l-46 0 0 63 c0 82 -12 90 -145 94 -55
1 -107 0 -115 -3z m227 -37 c16 -16 16 -18 0 -34 -26 -26 -228 -26 -253 -1
-14 14 -15 20 -5 32 17 21 43 25 149 22 71 -1 96 -6 109 -19z m-188 -68 c46
-11 135 -5 178 12 22 8 23 6 23 -35 0 -26 -5 -47 -12 -50 -7 -4 4 -4 25 -2 20
3 37 1 37 -4 0 -5 2 -15 5 -22 4 -10 -8 -21 -35 -33 -47 -21 -80 -53 -42 -41
l22 7 0 -135 c0 -124 -2 -136 -19 -146 -36 -19 -49 -12 -56 30 -9 53 -21 51
-29 -5 l-7 -45 -50 0 c-27 0 -65 7 -84 14 l-35 15 0 232 c0 212 1 231 17 225
9 -4 37 -11 62 -17z"/>
</g>
</svg>
