<?xml version="1.0" standalone="no"?>
<!DOCTYPE svg PUBLIC "-//W3C//DTD SVG 20010904//EN"
 "http://www.w3.org/TR/2001/REC-SVG-20010904/DTD/svg10.dtd">
<svg version="1.0" xmlns="http://www.w3.org/2000/svg"
 width="379.000000pt" height="416.000000pt" viewBox="0 0 379.000000 416.000000"
 preserveAspectRatio="xMidYMid meet">
<metadata>
Created by potrace 1.15, written by Peter Selinger 2001-2017
</metadata>
<g transform="translate(0.000000,416.000000) scale(0.100000,-0.100000)"
fill="#8B0000" stroke="none">
<path d="M2225 4144 c-278 -32 -564 -92 -895 -189 l-195 -56 -30 37 c-71 87
-100 113 -135 119 -86 15 -100 -64 -33 -186 l41 -74 -79 -83 c-369 -389 -693
-918 -822 -1342 -60 -197 -71 -278 -72 -515 0 -195 3 -232 23 -324 31 -138
108 -331 131 -331 5 0 17 22 26 50 35 106 178 283 279 348 115 72 227 115 386
147 l105 21 40 80 c115 233 278 344 503 344 128 0 133 3 175 83 36 72 132 202
153 211 15 6 486 -769 1084 -1784 327 -554 418 -700 439 -700 20 0 101 66 101
82 0 30 -192 373 -534 957 -128 218 -304 522 -391 676 -208 369 -296 516 -431
717 l-111 166 41 16 c65 24 124 36 225 44 l94 7 22 65 c49 144 120 242 229
312 82 53 167 77 300 85 l111 6 48 82 c98 166 243 307 386 377 83 40 147 56
248 64 45 4 87 10 94 15 17 10 -8 47 -94 136 -175 181 -431 292 -780 338 -147
19 -512 18 -682 -1z m759 -75 c122 -25 287 -79 380 -126 117 -59 276 -173 276
-197 0 -8 -34 -16 -93 -23 -184 -22 -320 -86 -442 -208 -56 -55 -81 -90 -119
-168 -31 -64 -51 -95 -59 -90 -7 3 -48 34 -92 69 -262 202 -570 341 -908 409
-166 33 -288 45 -469 46 -84 1 -180 4 -213 8 -60 7 -60 7 -30 20 84 37 460
154 605 190 347 84 519 103 865 94 143 -3 228 -10 299 -24z m-1982 -46 c13 -7
98 -121 97 -130 0 -4 -23 -23 -51 -42 l-51 -33 -19 23 c-30 37 -68 121 -68
151 0 15 8 31 18 37 15 9 54 6 74 -6z m287 -303 c107 -29 268 -119 400 -224
144 -115 327 -329 458 -536 54 -85 103 -172 103 -183 0 -3 -55 -4 -122 -4 -99
0 -136 -4 -188 -21 -156 -51 -267 -173 -344 -379 -15 -40 -29 -73 -31 -73 -9
0 -49 48 -86 102 -49 71 -155 283 -204 408 -115 292 -181 547 -192 741 -11
195 19 219 206 169z m-323 -212 c-140 -296 -198 -557 -198 -893 0 -232 27
-426 96 -691 8 -32 13 -60 11 -62 -2 -2 -52 -8 -110 -12 -60 -5 -135 -18 -172
-31 -144 -48 -280 -171 -376 -341 l-46 -82 -11 30 c-57 150 -64 468 -14 713
86 430 409 1001 803 1424 40 42 74 77 76 77 2 0 -25 -60 -59 -132z m1217
-1305 c328 -552 850 -1440 1096 -1866 138 -240 138 -239 93 -280 -15 -14 -21
-15 -29 -5 -16 21 -153 254 -473 803 -480 824 -510 873 -837 1377 -95 147
-173 272 -173 278 0 10 77 70 90 70 4 0 109 -170 233 -377z"/>
</g>
</svg>
